# xmcd CD database file
#
# Track frame offsets:
#	150
#	13130
#	25465
#	43720
#	64607
#	81255
#	95377
#	112847
#	130785
#	148245
#	175235
#
# Disc length: 2649 seconds
#
# Revision: 0
# Processed by: cddbd v1.5.1PL2 Copyright (c) Steve Scherf et al.
# Submitted via: CDex 1.51
#
DISCID=910a570b
DTITLE=Various Artist - GO! DELICIOUS GO!
DYEAR=2005
DGENRE=
TTITLE0=noodles/RED BUNNY(GO! DELICIOUS GO!)
TTITLE1=noodles/Ever Fallen In Love(With Someone You Shouldn't've)?
TTITLE2=THE STEREO FUTURE/The Fame
TTITLE3=THE STEREO FUTURE/Antarctica
TTITLE4=HERMIT/SKUNK
TTITLE5=HERMIT/WHERE'S A EXIT
TTITLE6=fragments/unlucky days
TTITLE7=fragments/oh my god
TTITLE8=モノクロ/女性
TTITLE9=モノクロ/冬カフェイン
TTITLE10=NINE MILES/word of mouth(spiral dub mix)
EXTD=YEAR: 2005
EXTT0=
EXTT1=
EXTT2=
EXTT3=
EXTT4=
EXTT5=
EXTT6=
EXTT7=
EXTT8=
EXTT9=
EXTT10=
PLAYORDER=
